<?xml version="1.0" encoding="utf-8" standalone="no"?>
<!DOCTYPE svg PUBLIC "-//W3C//DTD SVG 1.1//EN"
  "http://www.w3.org/Graphics/SVG/1.1/DTD/svg11.dtd">
<!-- Created with matplotlib (https://matplotlib.org/) -->
<svg height="345.6pt" version="1.1" viewBox="0 0 460.8 345.6" width="460.8pt" xmlns="http://www.w3.org/2000/svg" xmlns:xlink="http://www.w3.org/1999/xlink">
 <defs>
  <style type="text/css">
*{stroke-linecap:butt;stroke-linejoin:round;}
  </style>
 </defs>
 <g id="figure_1">
  <g id="patch_1">
   <path d="M 0 345.6 
L 460.8 345.6 
L 460.8 0 
L 0 0 
z
" style="fill:#ffffff;"/>
  </g>
  <g id="axes_1">
   <g id="patch_2">
    <path d="M 96.4512 307.584 
L 375.8688 307.584 
L 375.8688 41.472 
L 96.4512 41.472 
z
" style="fill:#ffffff;"/>
   </g>
   <g id="matplotlib.axis_1">
    <g id="xtick_1">
     <g id="line2d_1">
      <defs>
       <path d="M 0 0 
L 0 3.5 
" id="m361b667b7e" style="stroke:#000000;stroke-width:0.8;"/>
      </defs>
      <g>
       <use style="stroke:#000000;stroke-width:0.8;" x="103.104" xlink:href="#m361b667b7e" y="174.528"/>
      </g>
     </g>
     <g id="text_1">
      <!-- −4 -->
      <defs>
       <path d="M 10.59375 35.5 
L 73.1875 35.5 
L 73.1875 27.203125 
L 10.59375 27.203125 
z
" id="DejaVuSans-8722"/>
       <path d="M 37.796875 64.3125 
L 12.890625 25.390625 
L 37.796875 25.390625 
z
M 35.203125 72.90625 
L 47.609375 72.90625 
L 47.609375 25.390625 
L 58.015625 25.390625 
L 58.015625 17.1875 
L 47.609375 17.1875 
L 47.609375 0 
L 37.796875 0 
L 37.796875 17.1875 
L 4.890625 17.1875 
L 4.890625 26.703125 
z
" id="DejaVuSans-52"/>
      </defs>
      <g transform="translate(95.732906 189.126437)scale(0.1 -0.1)">
       <use xlink:href="#DejaVuSans-8722"/>
       <use x="83.789062" xlink:href="#DejaVuSans-52"/>
      </g>
     </g>
    </g>
    <g id="xtick_2">
     <g id="line2d_2">
      <g>
       <use style="stroke:#000000;stroke-width:0.8;" x="136.368" xlink:href="#m361b667b7e" y="174.528"/>
      </g>
     </g>
     <g id="text_2">
      <!-- −3 -->
      <defs>
       <path d="M 40.578125 39.3125 
Q 47.65625 37.796875 51.625 33 
Q 55.609375 28.21875 55.609375 21.1875 
Q 55.609375 10.40625 48.1875 4.484375 
Q 40.765625 -1.421875 27.09375 -1.421875 
Q 22.515625 -1.421875 17.65625 -0.515625 
Q 12.796875 0.390625 7.625 2.203125 
L 7.625 11.71875 
Q 11.71875 9.328125 16.59375 8.109375 
Q 21.484375 6.890625 26.8125 6.890625 
Q 36.078125 6.890625 40.9375 10.546875 
Q 45.796875 14.203125 45.796875 21.1875 
Q 45.796875 27.640625 41.28125 31.265625 
Q 36.765625 34.90625 28.71875 34.90625 
L 20.21875 34.90625 
L 20.21875 43.015625 
L 29.109375 43.015625 
Q 36.375 43.015625 40.234375 45.921875 
Q 44.09375 48.828125 44.09375 54.296875 
Q 44.09375 59.90625 40.109375 62.90625 
Q 36.140625 65.921875 28.71875 65.921875 
Q 24.65625 65.921875 20.015625 65.03125 
Q 15.375 64.15625 9.8125 62.3125 
L 9.8125 71.09375 
Q 15.4375 72.65625 20.34375 73.4375 
Q 25.25 74.21875 29.59375 74.21875 
Q 40.828125 74.21875 47.359375 69.109375 
Q 53.90625 64.015625 53.90625 55.328125 
Q 53.90625 49.265625 50.4375 45.09375 
Q 46.96875 40.921875 40.578125 39.3125 
z
" id="DejaVuSans-51"/>
      </defs>
      <g transform="translate(128.996906 189.126437)scale(0.1 -0.1)">
       <use xlink:href="#DejaVuSans-8722"/>
       <use x="83.789062" xlink:href="#DejaVuSans-51"/>
      </g>
     </g>
    </g>
    <g id="xtick_3">
     <g id="line2d_3">
      <g>
       <use style="stroke:#000000;stroke-width:0.8;" x="169.632" xlink:href="#m361b667b7e" y="174.528"/>
      </g>
     </g>
     <g id="text_3">
      <!-- −2 -->
      <defs>
       <path d="M 19.1875 8.296875 
L 53.609375 8.296875 
L 53.609375 0 
L 7.328125 0 
L 7.328125 8.296875 
Q 12.9375 14.109375 22.625 23.890625 
Q 32.328125 33.6875 34.8125 36.53125 
Q 39.546875 41.84375 41.421875 45.53125 
Q 43.3125 49.21875 43.3125 52.78125 
Q 43.3125 58.59375 39.234375 62.25 
Q 35.15625 65.921875 28.609375 65.921875 
Q 23.96875 65.921875 18.8125 64.3125 
Q 13.671875 62.703125 7.8125 59.421875 
L 7.8125 69.390625 
Q 13.765625 71.78125 18.9375 73 
Q 24.125 74.21875 28.421875 74.21875 
Q 39.75 74.21875 46.484375 68.546875 
Q 53.21875 62.890625 53.21875 53.421875 
Q 53.21875 48.921875 51.53125 44.890625 
Q 49.859375 40.875 45.40625 35.40625 
Q 44.1875 33.984375 37.640625 27.21875 
Q 31.109375 20.453125 19.1875 8.296875 
z
" id="DejaVuSans-50"/>
      </defs>
      <g transform="translate(162.260906 189.126437)scale(0.1 -0.1)">
       <use xlink:href="#DejaVuSans-8722"/>
       <use x="83.789062" xlink:href="#DejaVuSans-50"/>
      </g>
     </g>
    </g>
    <g id="xtick_4">
     <g id="line2d_4">
      <g>
       <use style="stroke:#000000;stroke-width:0.8;" x="202.896" xlink:href="#m361b667b7e" y="174.528"/>
      </g>
     </g>
     <g id="text_4">
      <!-- −1 -->
      <defs>
       <path d="M 12.40625 8.296875 
L 28.515625 8.296875 
L 28.515625 63.921875 
L 10.984375 60.40625 
L 10.984375 69.390625 
L 28.421875 72.90625 
L 38.28125 72.90625 
L 38.28125 8.296875 
L 54.390625 8.296875 
L 54.390625 0 
L 12.40625 0 
z
" id="DejaVuSans-49"/>
      </defs>
      <g transform="translate(195.524906 189.126437)scale(0.1 -0.1)">
       <use xlink:href="#DejaVuSans-8722"/>
       <use x="83.789062" xlink:href="#DejaVuSans-49"/>
      </g>
     </g>
    </g>
    <g id="xtick_5">
     <g id="line2d_5">
      <g>
       <use style="stroke:#000000;stroke-width:0.8;" x="236.16" xlink:href="#m361b667b7e" y="174.528"/>
      </g>
     </g>
     <g id="text_5">
      <!-- 0 -->
      <defs>
       <path d="M 31.78125 66.40625 
Q 24.171875 66.40625 20.328125 58.90625 
Q 16.5 51.421875 16.5 36.375 
Q 16.5 21.390625 20.328125 13.890625 
Q 24.171875 6.390625 31.78125 6.390625 
Q 39.453125 6.390625 43.28125 13.890625 
Q 47.125 21.390625 47.125 36.375 
Q 47.125 51.421875 43.28125 58.90625 
Q 39.453125 66.40625 31.78125 66.40625 
z
M 31.78125 74.21875 
Q 44.046875 74.21875 50.515625 64.515625 
Q 56.984375 54.828125 56.984375 36.375 
Q 56.984375 17.96875 50.515625 8.265625 
Q 44.046875 -1.421875 31.78125 -1.421875 
Q 19.53125 -1.421875 13.0625 8.265625 
Q 6.59375 17.96875 6.59375 36.375 
Q 6.59375 54.828125 13.0625 64.515625 
Q 19.53125 74.21875 31.78125 74.21875 
z
" id="DejaVuSans-48"/>
      </defs>
      <g transform="translate(232.97875 189.126437)scale(0.1 -0.1)">
       <use xlink:href="#DejaVuSans-48"/>
      </g>
     </g>
    </g>
    <g id="xtick_6">
     <g id="line2d_6">
      <g>
       <use style="stroke:#000000;stroke-width:0.8;" x="269.424" xlink:href="#m361b667b7e" y="174.528"/>
      </g>
     </g>
     <g id="text_6">
      <!-- 1 -->
      <g transform="translate(266.24275 189.126437)scale(0.1 -0.1)">
       <use xlink:href="#DejaVuSans-49"/>
      </g>
     </g>
    </g>
    <g id="xtick_7">
     <g id="line2d_7">
      <g>
       <use style="stroke:#000000;stroke-width:0.8;" x="302.688" xlink:href="#m361b667b7e" y="174.528"/>
      </g>
     </g>
     <g id="text_7">
      <!-- 2 -->
      <g transform="translate(299.50675 189.126437)scale(0.1 -0.1)">
       <use xlink:href="#DejaVuSans-50"/>
      </g>
     </g>
    </g>
    <g id="xtick_8">
     <g id="line2d_8">
      <g>
       <use style="stroke:#000000;stroke-width:0.8;" x="335.952" xlink:href="#m361b667b7e" y="174.528"/>
      </g>
     </g>
     <g id="text_8">
      <!-- 3 -->
      <g transform="translate(332.77075 189.126437)scale(0.1 -0.1)">
       <use xlink:href="#DejaVuSans-51"/>
      </g>
     </g>
    </g>
    <g id="xtick_9">
     <g id="line2d_9">
      <g>
       <use style="stroke:#000000;stroke-width:0.8;" x="369.216" xlink:href="#m361b667b7e" y="174.528"/>
      </g>
     </g>
     <g id="text_9">
      <!-- 4 -->
      <g transform="translate(366.03475 189.126437)scale(0.1 -0.1)">
       <use xlink:href="#DejaVuSans-52"/>
      </g>
     </g>
    </g>
   </g>
   <g id="matplotlib.axis_2">
    <g id="ytick_1">
     <g id="line2d_10">
      <defs>
       <path d="M 0 0 
L -3.5 0 
" id="m6d2a71e2bf" style="stroke:#000000;stroke-width:0.8;"/>
      </defs>
      <g>
       <use style="stroke:#000000;stroke-width:0.8;" x="236.16" xlink:href="#m6d2a71e2bf" y="307.584"/>
      </g>
     </g>
     <g id="text_10">
      <!-- −4 -->
      <g transform="translate(214.417812 311.383219)scale(0.1 -0.1)">
       <use xlink:href="#DejaVuSans-8722"/>
       <use x="83.789062" xlink:href="#DejaVuSans-52"/>
      </g>
     </g>
    </g>
    <g id="ytick_2">
     <g id="line2d_11">
      <g>
       <use style="stroke:#000000;stroke-width:0.8;" x="236.16" xlink:href="#m6d2a71e2bf" y="274.32"/>
      </g>
     </g>
     <g id="text_11">
      <!-- −3 -->
      <g transform="translate(214.417812 278.119219)scale(0.1 -0.1)">
       <use xlink:href="#DejaVuSans-8722"/>
       <use x="83.789062" xlink:href="#DejaVuSans-51"/>
      </g>
     </g>
    </g>
    <g id="ytick_3">
     <g id="line2d_12">
      <g>
       <use style="stroke:#000000;stroke-width:0.8;" x="236.16" xlink:href="#m6d2a71e2bf" y="241.056"/>
      </g>
     </g>
     <g id="text_12">
      <!-- −2 -->
      <g transform="translate(214.417812 244.855219)scale(0.1 -0.1)">
       <use xlink:href="#DejaVuSans-8722"/>
       <use x="83.789062" xlink:href="#DejaVuSans-50"/>
      </g>
     </g>
    </g>
    <g id="ytick_4">
     <g id="line2d_13">
      <g>
       <use style="stroke:#000000;stroke-width:0.8;" x="236.16" xlink:href="#m6d2a71e2bf" y="207.792"/>
      </g>
     </g>
     <g id="text_13">
      <!-- −1 -->
      <g transform="translate(214.417812 211.591219)scale(0.1 -0.1)">
       <use xlink:href="#DejaVuSans-8722"/>
       <use x="83.789062" xlink:href="#DejaVuSans-49"/>
      </g>
     </g>
    </g>
    <g id="ytick_5">
     <g id="line2d_14">
      <g>
       <use style="stroke:#000000;stroke-width:0.8;" x="236.16" xlink:href="#m6d2a71e2bf" y="174.528"/>
      </g>
     </g>
     <g id="text_14">
      <!-- 0 -->
      <g transform="translate(222.7975 178.327219)scale(0.1 -0.1)">
       <use xlink:href="#DejaVuSans-48"/>
      </g>
     </g>
    </g>
    <g id="ytick_6">
     <g id="line2d_15">
      <g>
       <use style="stroke:#000000;stroke-width:0.8;" x="236.16" xlink:href="#m6d2a71e2bf" y="141.264"/>
      </g>
     </g>
     <g id="text_15">
      <!-- 1 -->
      <g transform="translate(222.7975 145.063219)scale(0.1 -0.1)">
       <use xlink:href="#DejaVuSans-49"/>
      </g>
     </g>
    </g>
    <g id="ytick_7">
     <g id="line2d_16">
      <g>
       <use style="stroke:#000000;stroke-width:0.8;" x="236.16" xlink:href="#m6d2a71e2bf" y="108"/>
      </g>
     </g>
     <g id="text_16">
      <!-- 2 -->
      <g transform="translate(222.7975 111.799219)scale(0.1 -0.1)">
       <use xlink:href="#DejaVuSans-50"/>
      </g>
     </g>
    </g>
    <g id="ytick_8">
     <g id="line2d_17">
      <g>
       <use style="stroke:#000000;stroke-width:0.8;" x="236.16" xlink:href="#m6d2a71e2bf" y="74.736"/>
      </g>
     </g>
     <g id="text_17">
      <!-- 3 -->
      <g transform="translate(222.7975 78.535219)scale(0.1 -0.1)">
       <use xlink:href="#DejaVuSans-51"/>
      </g>
     </g>
    </g>
    <g id="ytick_9">
     <g id="line2d_18">
      <g>
       <use style="stroke:#000000;stroke-width:0.8;" x="236.16" xlink:href="#m6d2a71e2bf" y="41.472"/>
      </g>
     </g>
     <g id="text_18">
      <!-- 4 -->
      <g transform="translate(222.7975 45.271219)scale(0.1 -0.1)">
       <use xlink:href="#DejaVuSans-52"/>
      </g>
     </g>
    </g>
   </g>
   <g id="line2d_19">
    <path clip-path="url(#p4d73c840e6)" d="M 202.896 174.528 
L 202.962758 176.63438 
L 203.162765 178.732305 
L 203.495218 180.813355 
L 203.958782 182.869177 
L 204.551596 184.891518 
L 205.271282 186.872262 
L 206.11495 188.803458 
L 207.079215 190.677354 
L 208.160205 192.486429 
L 209.353582 194.223422 
L 210.654556 195.881361 
L 212.057905 197.45359 
L 213.557995 198.9338 
L 215.148807 200.316049 
L 216.823954 201.594789 
L 218.576714 202.764886 
L 220.40005 203.821645 
L 222.286643 204.760824 
L 224.228923 205.578654 
L 226.219091 206.27185 
L 228.249161 206.837632 
L 230.310984 207.273728 
L 232.396284 207.578388 
L 234.496691 207.750389 
L 236.603774 207.78904 
L 238.709076 207.694186 
L 240.804147 207.466209 
L 242.880576 207.106023 
L 244.93003 206.615073 
L 246.944283 205.995331 
L 248.915249 205.249284 
L 250.835018 204.379927 
L 252.695883 203.390749 
L 254.490376 202.28572 
L 256.211293 201.069276 
L 257.851728 199.746299 
L 259.405096 198.322101 
L 260.865161 196.802396 
L 262.226064 195.193285 
L 263.482342 193.501227 
L 264.628952 191.733014 
L 265.661292 189.895742 
L 266.575218 187.996786 
L 267.367063 186.043769 
L 268.033647 184.04453 
L 268.572295 182.007092 
L 268.980846 179.939635 
L 269.257658 177.850456 
L 269.401622 175.747941 
L 269.412159 173.64053 
L 269.289227 171.536681 
L 269.03332 169.444839 
L 268.645464 167.373399 
L 268.127217 165.330677 
L 267.480658 163.324872 
L 266.708383 161.364034 
L 265.813491 159.456034 
L 264.799575 157.608531 
L 263.670705 155.82894 
L 262.43141 154.124404 
L 261.086666 152.501765 
L 259.641871 150.967536 
L 258.102822 149.527875 
L 256.475699 148.188561 
L 254.767032 146.954969 
L 252.983679 145.83205 
L 251.132798 144.824313 
L 249.221819 143.935802 
L 247.258412 143.170083 
L 245.250457 142.53023 
L 243.206015 142.018811 
L 241.133291 141.637879 
L 239.040605 141.388962 
L 236.936357 141.273061 
L 234.828993 141.29064 
L 232.726971 141.441628 
L 230.638729 141.72542 
L 228.572648 142.140876 
L 226.537022 142.686329 
L 224.540021 143.35959 
L 222.58966 144.157956 
L 220.693769 145.078222 
L 218.859957 146.116696 
L 217.095585 147.269208 
L 215.407734 148.531132 
L 213.803179 149.897404 
L 212.288362 151.362539 
L 210.869361 152.920657 
L 209.551873 154.565503 
L 208.341186 156.290475 
L 207.24216 158.088651 
L 206.259205 159.952811 
L 205.396267 161.875473 
L 204.65681 163.848921 
L 204.043802 165.865234 
L 203.559703 167.916317 
L 203.206457 169.993938 
L 202.985482 172.089758 
L 202.897663 174.195366 
" style="fill:none;stroke:#1f77b4;stroke-linecap:square;stroke-width:1.5;"/>
   </g>
   <g id="line2d_20">
    <path clip-path="url(#p4d73c840e6)" d="M 236.16 279.029938 
L 236.16 276.922148 
L 236.16 274.814358 
L 236.16 272.706567 
L 236.16 270.598777 
L 236.16 268.490987 
L 236.16 266.383196 
L 236.16 264.275406 
L 236.16 262.167616 
L 236.16 260.059826 
L 236.16 257.952035 
L 236.16 255.844245 
L 236.16 253.736455 
L 236.16 251.628665 
L 236.16 249.520874 
L 236.16 247.413084 
L 236.16 245.305294 
L 236.16 243.197504 
L 236.16 241.089713 
L 236.16 238.981923 
L 236.16 236.874133 
L 236.16 234.766343 
L 236.16 232.658552 
L 236.16 230.550762 
L 236.16 228.442972 
L 236.16 226.335181 
L 236.16 224.227391 
L 236.16 222.119601 
L 236.16 220.011811 
L 236.16 217.90402 
L 236.16 215.79623 
L 236.16 213.68844 
L 236.16 211.58065 
L 236.16 209.472859 
L 236.16 207.365069 
L 236.16 205.257279 
L 236.16 203.149489 
L 236.16 201.041698 
L 236.16 198.933908 
L 236.16 196.826118 
L 236.16 194.718328 
L 236.16 192.610537 
L 236.16 190.502747 
L 236.16 188.394957 
L 236.16 186.287166 
L 236.16 184.179376 
L 236.16 182.071586 
L 236.16 179.963796 
L 236.16 177.856005 
L 236.16 175.748215 
L 236.16 173.640425 
L 236.16 171.532635 
L 236.16 169.424844 
L 236.16 167.317054 
L 236.16 165.209264 
L 236.16 163.101474 
L 236.16 160.993683 
L 236.16 158.885893 
L 236.16 156.778103 
L 236.16 154.670312 
L 236.16 152.562522 
L 236.16 150.454732 
L 236.16 148.346942 
L 236.16 146.239151 
L 236.16 144.131361 
L 236.16 142.023571 
L 236.16 139.915781 
L 236.16 137.80799 
L 236.16 135.7002 
L 236.16 133.59241 
L 236.16 131.48462 
L 236.16 129.376829 
L 236.16 127.269039 
L 236.16 125.161249 
L 236.16 123.053459 
L 236.16 120.945668 
L 236.16 118.837878 
L 236.16 116.730088 
L 236.16 114.622297 
L 236.16 112.514507 
L 236.16 110.406717 
L 236.16 108.298927 
L 236.16 106.191136 
L 236.16 104.083346 
L 236.16 101.975556 
L 236.16 99.867766 
L 236.16 97.759975 
L 236.16 95.652185 
L 236.16 93.544395 
L 236.16 91.436605 
L 236.16 89.328814 
L 236.16 87.221024 
L 236.16 85.113234 
L 236.16 83.005444 
L 236.16 80.897653 
L 236.16 78.789863 
L 236.16 76.682073 
L 236.16 74.574282 
L 236.16 72.466492 
L 236.16 70.358702 
" style="fill:none;stroke:#ff7f0e;stroke-linecap:square;stroke-width:1.5;"/>
   </g>
   <g id="line2d_21">
    <path clip-path="url(#p4d73c840e6)" d="M 269.424 108 
L 269.490758 110.10638 
L 269.690765 112.204305 
L 270.023218 114.285355 
L 270.486782 116.341177 
L 271.079596 118.363518 
L 271.799282 120.344262 
L 272.64295 122.275458 
L 273.607215 124.149354 
L 274.688205 125.958429 
L 275.881582 127.695422 
L 277.182556 129.353361 
L 278.585905 130.92559 
L 280.085995 132.4058 
L 281.676807 133.788049 
L 283.351954 135.066789 
L 285.104714 136.236886 
L 286.92805 137.293645 
L 288.814643 138.232824 
L 290.756923 139.050654 
L 292.747091 139.74385 
L 294.777161 140.309632 
L 296.838984 140.745728 
L 298.924284 141.050388 
L 301.024691 141.222389 
L 303.131774 141.26104 
L 305.237076 141.166186 
L 307.332147 140.938209 
L 309.408576 140.578023 
L 311.45803 140.087073 
L 313.472283 139.467331 
L 315.443249 138.721284 
L 317.363018 137.851927 
L 319.223883 136.862749 
L 321.018376 135.75772 
L 322.739293 134.541276 
L 324.379728 133.218299 
L 325.933096 131.794101 
L 327.393161 130.274396 
L 328.754064 128.665285 
L 330.010342 126.973227 
L 331.156952 125.205014 
L 332.189292 123.367742 
L 333.103218 121.468786 
L 333.895063 119.515769 
L 334.561647 117.51653 
L 335.100295 115.479092 
L 335.508846 113.411635 
L 335.785658 111.322456 
L 335.929622 109.219941 
L 335.940159 107.11253 
L 335.817227 105.008681 
L 335.56132 102.916839 
L 335.173464 100.845399 
L 334.655217 98.802677 
L 334.008658 96.796872 
L 333.236383 94.836034 
L 332.341491 92.928034 
L 331.327575 91.080531 
L 330.198705 89.30094 
L 328.95941 87.596404 
L 327.614666 85.973765 
L 326.169871 84.439536 
L 324.630822 82.999875 
L 323.003699 81.660561 
L 321.295032 80.426969 
L 319.511679 79.30405 
L 317.660798 78.296313 
L 315.749819 77.407802 
L 313.786412 76.642083 
L 311.778457 76.00223 
L 309.734015 75.490811 
L 307.661291 75.109879 
L 305.568605 74.860962 
L 303.464357 74.745061 
L 301.356993 74.76264 
L 299.254971 74.913628 
L 297.166729 75.19742 
L 295.100648 75.612876 
L 293.065022 76.158329 
L 291.068021 76.83159 
L 289.11766 77.629956 
L 287.221769 78.550222 
L 285.387957 79.588696 
L 283.623585 80.741208 
L 281.935734 82.003132 
L 280.331179 83.369404 
L 278.816362 84.834539 
L 277.397361 86.392657 
L 276.079873 88.037503 
L 274.869186 89.762475 
L 273.77016 91.560651 
L 272.787205 93.424811 
L 271.924267 95.347473 
L 271.18481 97.320921 
L 270.571802 99.337234 
L 270.087703 101.388317 
L 269.734457 103.465938 
L 269.513482 105.561758 
L 269.425663 107.667366 
" style="fill:none;stroke:#2ca02c;stroke-linecap:square;stroke-width:1.5;"/>
   </g>
   <g id="line2d_22">
    <path clip-path="url(#p4d73c840e6)" d="M 262.928171 137.699805 
L 262.091633 138.159208 
L 261.27351 138.695848 
L 260.482386 139.311392 
L 259.727723 140.006417 
L 259.019723 140.780138 
L 258.369116 141.630132 
L 257.786844 142.552097 
L 257.283657 143.539683 
L 256.869633 144.584418 
L 256.553644 145.675782 
L 256.342836 146.80144 
L 256.242164 147.947632 
L 256.254047 149.099714 
L 256.378198 150.242779 
L 256.611642 151.36232 
L 256.948932 152.444836 
L 257.382515 153.478346 
L 257.90322 154.452749 
L 258.500787 155.360018 
L 259.164386 156.194244 
L 259.883088 156.951538 
L 260.646254 157.629844 
L 261.443821 158.228687 
L 262.266504 158.748895 
L 263.105912 159.19233 
L 263.954594 159.561628 
L 264.80603 159.859974 
L 265.654598 160.090913 
L 266.4955 160.258197 
L 267.324689 160.365657 
L 268.138789 160.417117 
L 268.935007 160.416324 
L 269.711057 160.366897 
L 270.465089 160.272301 
L 271.195623 160.135821 
L 271.901492 159.96056 
L 272.581788 159.749429 
L 273.235823 159.505154 
L 273.863086 159.230281 
L 274.463217 158.927182 
L 275.035973 158.598067 
L 275.581212 158.244994 
L 276.098866 157.869878 
L 276.58893 157.474504 
L 277.051449 157.060538 
L 277.486501 156.629532 
L 277.894192 156.182943 
L 278.274648 155.722132 
L 278.628005 155.248379 
L 278.954407 154.762889 
L 279.254001 154.266802 
L 279.526929 153.761196 
L 279.773333 153.247095 
L 279.993344 152.725478 
L 280.187085 152.19728 
L 280.354667 151.663403 
L 280.49619 151.124715 
L 280.611738 150.582061 
L 280.701384 150.036262 
L 280.765183 149.488125 
L 280.803174 148.938442 
L 280.815382 148.387999 
L 280.801815 147.837577 
L 280.762464 147.287956 
L 280.697303 146.739923 
L 280.606293 146.19427 
L 280.489376 145.651804 
L 280.346481 145.113348 
L 280.177523 144.579748 
L 279.982399 144.051875 
L 279.761 143.53063 
L 279.513201 143.016952 
L 279.23887 142.511822 
L 278.937866 142.016266 
L 278.610046 141.531367 
L 278.255264 141.058266 
L 277.873375 140.598172 
L 277.464244 140.152369 
L 277.027746 139.722226 
L 276.563777 139.3092 
L 276.072258 138.914852 
L 275.553149 138.540852 
L 275.006457 138.188993 
L 274.432253 137.861197 
L 273.830685 137.55953 
L 273.201999 137.28621 
L 272.546566 137.043618 
L 271.864902 136.834309 
L 271.157708 136.661018 
L 270.425903 136.526668 
L 269.670669 136.43437 
L 268.893506 136.387419 
L 268.096285 136.38929 
L 267.281315 136.443609 
L 266.451417 136.554128 
L 265.610004 136.724672 
L 264.761159 136.959074 
L 263.909719 137.261075 
L 263.061356 137.634207 
" style="fill:none;stroke:#d62728;stroke-linecap:square;stroke-width:1.5;"/>
   </g>
   <g id="line2d_23">
    <path clip-path="url(#p4d73c840e6)" d="M 219.528 157.896 
L 220.914 157.896 
L 222.3 157.896 
L 223.686 157.896 
L 225.072 157.896 
L 226.458 157.896 
L 227.844 157.896 
L 229.23 157.896 
L 230.616 157.896 
L 232.002 157.896 
L 233.388 157.896 
L 234.774 157.896 
L 236.16 157.896 
L 237.546 157.896 
L 238.932 157.896 
L 240.318 157.896 
L 241.704 157.896 
L 243.09 157.896 
L 244.476 157.896 
L 245.862 157.896 
L 247.248 157.896 
L 248.634 157.896 
L 250.02 157.896 
L 251.406 157.896 
L 252.792 157.896 
L 252.792 157.896 
L 252.792 159.22656 
L 252.792 160.55712 
L 252.792 161.88768 
L 252.792 163.21824 
L 252.792 164.5488 
L 252.792 165.87936 
L 252.792 167.20992 
L 252.792 168.54048 
L 252.792 169.87104 
L 252.792 171.2016 
L 252.792 172.53216 
L 252.792 173.86272 
L 252.792 175.19328 
L 252.792 176.52384 
L 252.792 177.8544 
L 252.792 179.18496 
L 252.792 180.51552 
L 252.792 181.84608 
L 252.792 183.17664 
L 252.792 184.5072 
L 252.792 185.83776 
L 252.792 187.16832 
L 252.792 188.49888 
L 252.792 189.82944 
L 252.792 191.16 
L 252.792 191.16 
L 251.406 191.16 
L 250.02 191.16 
L 248.634 191.16 
L 247.248 191.16 
L 245.862 191.16 
L 244.476 191.16 
L 243.09 191.16 
L 241.704 191.16 
L 240.318 191.16 
L 238.932 191.16 
L 237.546 191.16 
L 236.16 191.16 
L 234.774 191.16 
L 233.388 191.16 
L 232.002 191.16 
L 230.616 191.16 
L 229.23 191.16 
L 227.844 191.16 
L 226.458 191.16 
L 225.072 191.16 
L 223.686 191.16 
L 222.3 191.16 
L 220.914 191.16 
L 219.528 191.16 
L 219.528 191.16 
L 219.528 189.82944 
L 219.528 188.49888 
L 219.528 187.16832 
L 219.528 185.83776 
L 219.528 184.5072 
L 219.528 183.17664 
L 219.528 181.84608 
L 219.528 180.51552 
L 219.528 179.18496 
L 219.528 177.8544 
L 219.528 176.52384 
L 219.528 175.19328 
L 219.528 173.86272 
L 219.528 172.53216 
L 219.528 171.2016 
L 219.528 169.87104 
L 219.528 168.54048 
L 219.528 167.20992 
L 219.528 165.87936 
L 219.528 164.5488 
L 219.528 163.21824 
L 219.528 161.88768 
L 219.528 160.55712 
L 219.528 159.22656 
L 219.528 157.896 
" style="fill:none;stroke:#9467bd;stroke-linecap:square;stroke-width:1.5;"/>
   </g>
   <g id="line2d_24">
    <defs>
     <path d="M 0 1.5 
C 0.397805 1.5 0.77937 1.341951 1.06066 1.06066 
C 1.341951 0.77937 1.5 0.397805 1.5 0 
C 1.5 -0.397805 1.341951 -0.77937 1.06066 -1.06066 
C 0.77937 -1.341951 0.397805 -1.5 0 -1.5 
C -0.397805 -1.5 -0.77937 -1.341951 -1.06066 -1.06066 
C -1.341951 -0.77937 -1.5 -0.397805 -1.5 0 
C -1.5 0.397805 -1.341951 0.77937 -1.06066 1.06066 
C -0.77937 1.341951 -0.397805 1.5 0 1.5 
z
" id="m5daa83f77b" style="stroke:#8c564b;"/>
    </defs>
    <g clip-path="url(#p4d73c840e6)">
     <use style="fill:#8c564b;stroke:#8c564b;" x="224.631576" xlink:href="#m5daa83f77b" y="96.151546"/>
     <use style="fill:#8c564b;stroke:#8c564b;" x="223.247284" xlink:href="#m5daa83f77b" y="97.596897"/>
     <use style="fill:#8c564b;stroke:#8c564b;" x="221.874119" xlink:href="#m5daa83f77b" y="99.167257"/>
     <use style="fill:#8c564b;stroke:#8c564b;" x="220.525799" xlink:href="#m5daa83f77b" y="100.87161"/>
     <use style="fill:#8c564b;stroke:#8c564b;" x="219.219151" xlink:href="#m5daa83f77b" y="102.717712"/>
     <use style="fill:#8c564b;stroke:#8c564b;" x="217.974281" xlink:href="#m5daa83f77b" y="104.711163"/>
     <use style="fill:#8c564b;stroke:#8c564b;" x="216.814476" xlink:href="#m5daa83f77b" y="106.854257"/>
     <use style="fill:#8c564b;stroke:#8c564b;" x="215.765693" xlink:href="#m5daa83f77b" y="109.144699"/>
     <use style="fill:#8c564b;stroke:#8c564b;" x="214.855508" xlink:href="#m5daa83f77b" y="111.574321"/>
     <use style="fill:#8c564b;stroke:#8c564b;" x="214.111461" xlink:href="#m5daa83f77b" y="114.128061"/>
     <use style="fill:#8c564b;stroke:#8c564b;" x="213.558852" xlink:href="#m5daa83f77b" y="116.783525"/>
     <use style="fill:#8c564b;stroke:#8c564b;" x="213.218253" xlink:href="#m5daa83f77b" y="119.511421"/>
     <use style="fill:#8c564b;stroke:#8c564b;" x="213.103152" xlink:href="#m5daa83f77b" y="122.277031"/>
     <use style="fill:#8c564b;stroke:#8c564b;" x="213.218253" xlink:href="#m5daa83f77b" y="125.042641"/>
     <use style="fill:#8c564b;stroke:#8c564b;" x="213.558852" xlink:href="#m5daa83f77b" y="127.770537"/>
     <use style="fill:#8c564b;stroke:#8c564b;" x="214.111461" xlink:href="#m5daa83f77b" y="130.426001"/>
     <use style="fill:#8c564b;stroke:#8c564b;" x="214.855508" xlink:href="#m5daa83f77b" y="132.979741"/>
     <use style="fill:#8c564b;stroke:#8c564b;" x="215.765693" xlink:href="#m5daa83f77b" y="135.409363"/>
     <use style="fill:#8c564b;stroke:#8c564b;" x="216.814476" xlink:href="#m5daa83f77b" y="137.699805"/>
     <use style="fill:#8c564b;stroke:#8c564b;" x="217.974281" xlink:href="#m5daa83f77b" y="139.842899"/>
     <use style="fill:#8c564b;stroke:#8c564b;" x="219.219151" xlink:href="#m5daa83f77b" y="141.83635"/>
     <use style="fill:#8c564b;stroke:#8c564b;" x="220.525799" xlink:href="#m5daa83f77b" y="143.682452"/>
     <use style="fill:#8c564b;stroke:#8c564b;" x="221.874119" xlink:href="#m5daa83f77b" y="145.386805"/>
     <use style="fill:#8c564b;stroke:#8c564b;" x="223.247284" xlink:href="#m5daa83f77b" y="146.957165"/>
     <use style="fill:#8c564b;stroke:#8c564b;" x="224.631576" xlink:href="#m5daa83f77b" y="148.402515"/>
     <use style="fill:#8c564b;stroke:#8c564b;" x="224.631576" xlink:href="#m5daa83f77b" y="148.402515"/>
     <use style="fill:#8c564b;stroke:#8c564b;" x="223.302523" xlink:href="#m5daa83f77b" y="149.787714"/>
     <use style="fill:#8c564b;stroke:#8c564b;" x="221.983259" xlink:href="#m5daa83f77b" y="151.28778"/>
     <use style="fill:#8c564b;stroke:#8c564b;" x="220.685759" xlink:href="#m5daa83f77b" y="152.910709"/>
     <use style="fill:#8c564b;stroke:#8c564b;" x="219.424625" xlink:href="#m5daa83f77b" y="154.663516"/>
     <use style="fill:#8c564b;stroke:#8c564b;" x="218.217238" xlink:href="#m5daa83f77b" y="156.551486"/>
     <use style="fill:#8c564b;stroke:#8c564b;" x="217.083719" xlink:href="#m5daa83f77b" y="158.57727"/>
     <use style="fill:#8c564b;stroke:#8c564b;" x="216.046583" xlink:href="#m5daa83f77b" y="160.739843"/>
     <use style="fill:#8c564b;stroke:#8c564b;" x="215.129987" xlink:href="#m5daa83f77b" y="163.033439"/>
     <use style="fill:#8c564b;stroke:#8c564b;" x="214.35851" xlink:href="#m5daa83f77b" y="165.446639"/>
     <use style="fill:#8c564b;stroke:#8c564b;" x="213.755471" xlink:href="#m5daa83f77b" y="167.961834"/>
     <use style="fill:#8c564b;stroke:#8c564b;" x="213.340945" xlink:href="#m5daa83f77b" y="170.555316"/>
     <use style="fill:#8c564b;stroke:#8c564b;" x="213.129742" xlink:href="#m5daa83f77b" y="173.198149"/>
     <use style="fill:#8c564b;stroke:#8c564b;" x="213.129742" xlink:href="#m5daa83f77b" y="175.857851"/>
     <use style="fill:#8c564b;stroke:#8c564b;" x="213.340945" xlink:href="#m5daa83f77b" y="178.500684"/>
     <use style="fill:#8c564b;stroke:#8c564b;" x="213.755471" xlink:href="#m5daa83f77b" y="181.094166"/>
     <use style="fill:#8c564b;stroke:#8c564b;" x="214.35851" xlink:href="#m5daa83f77b" y="183.609361"/>
     <use style="fill:#8c564b;stroke:#8c564b;" x="215.129987" xlink:href="#m5daa83f77b" y="186.022561"/>
     <use style="fill:#8c564b;stroke:#8c564b;" x="216.046583" xlink:href="#m5daa83f77b" y="188.316157"/>
     <use style="fill:#8c564b;stroke:#8c564b;" x="217.083719" xlink:href="#m5daa83f77b" y="190.47873"/>
     <use style="fill:#8c564b;stroke:#8c564b;" x="218.217238" xlink:href="#m5daa83f77b" y="192.504514"/>
     <use style="fill:#8c564b;stroke:#8c564b;" x="219.424625" xlink:href="#m5daa83f77b" y="194.392484"/>
     <use style="fill:#8c564b;stroke:#8c564b;" x="220.685759" xlink:href="#m5daa83f77b" y="196.145291"/>
     <use style="fill:#8c564b;stroke:#8c564b;" x="221.983259" xlink:href="#m5daa83f77b" y="197.76822"/>
     <use style="fill:#8c564b;stroke:#8c564b;" x="223.302523" xlink:href="#m5daa83f77b" y="199.268286"/>
     <use style="fill:#8c564b;stroke:#8c564b;" x="224.631576" xlink:href="#m5daa83f77b" y="200.653485"/>
     <use style="fill:#8c564b;stroke:#8c564b;" x="224.631576" xlink:href="#m5daa83f77b" y="200.653485"/>
     <use style="fill:#8c564b;stroke:#8c564b;" x="223.247284" xlink:href="#m5daa83f77b" y="202.098835"/>
     <use style="fill:#8c564b;stroke:#8c564b;" x="221.874119" xlink:href="#m5daa83f77b" y="203.669195"/>
     <use style="fill:#8c564b;stroke:#8c564b;" x="220.525799" xlink:href="#m5daa83f77b" y="205.373548"/>
     <use style="fill:#8c564b;stroke:#8c564b;" x="219.219151" xlink:href="#m5daa83f77b" y="207.21965"/>
     <use style="fill:#8c564b;stroke:#8c564b;" x="217.974281" xlink:href="#m5daa83f77b" y="209.213101"/>
     <use style="fill:#8c564b;stroke:#8c564b;" x="216.814476" xlink:href="#m5daa83f77b" y="211.356195"/>
     <use style="fill:#8c564b;stroke:#8c564b;" x="215.765693" xlink:href="#m5daa83f77b" y="213.646637"/>
     <use style="fill:#8c564b;stroke:#8c564b;" x="214.855508" xlink:href="#m5daa83f77b" y="216.076259"/>
     <use style="fill:#8c564b;stroke:#8c564b;" x="214.111461" xlink:href="#m5daa83f77b" y="218.629999"/>
     <use style="fill:#8c564b;stroke:#8c564b;" x="213.558852" xlink:href="#m5daa83f77b" y="221.285463"/>
     <use style="fill:#8c564b;stroke:#8c564b;" x="213.218253" xlink:href="#m5daa83f77b" y="224.013359"/>
     <use style="fill:#8c564b;stroke:#8c564b;" x="213.103152" xlink:href="#m5daa83f77b" y="226.778969"/>
     <use style="fill:#8c564b;stroke:#8c564b;" x="213.218253" xlink:href="#m5daa83f77b" y="229.544579"/>
     <use style="fill:#8c564b;stroke:#8c564b;" x="213.558852" xlink:href="#m5daa83f77b" y="232.272475"/>
     <use style="fill:#8c564b;stroke:#8c564b;" x="214.111461" xlink:href="#m5daa83f77b" y="234.927939"/>
     <use style="fill:#8c564b;stroke:#8c564b;" x="214.855508" xlink:href="#m5daa83f77b" y="237.481679"/>
     <use style="fill:#8c564b;stroke:#8c564b;" x="215.765693" xlink:href="#m5daa83f77b" y="239.911301"/>
     <use style="fill:#8c564b;stroke:#8c564b;" x="216.814476" xlink:href="#m5daa83f77b" y="242.201743"/>
     <use style="fill:#8c564b;stroke:#8c564b;" x="217.974281" xlink:href="#m5daa83f77b" y="244.344837"/>
     <use style="fill:#8c564b;stroke:#8c564b;" x="219.219151" xlink:href="#m5daa83f77b" y="246.338288"/>
     <use style="fill:#8c564b;stroke:#8c564b;" x="220.525799" xlink:href="#m5daa83f77b" y="248.18439"/>
     <use style="fill:#8c564b;stroke:#8c564b;" x="221.874119" xlink:href="#m5daa83f77b" y="249.888743"/>
     <use style="fill:#8c564b;stroke:#8c564b;" x="223.247284" xlink:href="#m5daa83f77b" y="251.459103"/>
     <use style="fill:#8c564b;stroke:#8c564b;" x="224.631576" xlink:href="#m5daa83f77b" y="252.904454"/>
     <use style="fill:#8c564b;stroke:#8c564b;" x="224.631576" xlink:href="#m5daa83f77b" y="252.904454"/>
     <use style="fill:#8c564b;stroke:#8c564b;" x="223.302523" xlink:href="#m5daa83f77b" y="254.289652"/>
     <use style="fill:#8c564b;stroke:#8c564b;" x="221.983259" xlink:href="#m5daa83f77b" y="255.789718"/>
     <use style="fill:#8c564b;stroke:#8c564b;" x="220.685759" xlink:href="#m5daa83f77b" y="257.412647"/>
     <use style="fill:#8c564b;stroke:#8c564b;" x="219.424625" xlink:href="#m5daa83f77b" y="259.165454"/>
     <use style="fill:#8c564b;stroke:#8c564b;" x="218.217238" xlink:href="#m5daa83f77b" y="261.053424"/>
     <use style="fill:#8c564b;stroke:#8c564b;" x="217.083719" xlink:href="#m5daa83f77b" y="263.079208"/>
     <use style="fill:#8c564b;stroke:#8c564b;" x="216.046583" xlink:href="#m5daa83f77b" y="265.241781"/>
     <use style="fill:#8c564b;stroke:#8c564b;" x="215.129987" xlink:href="#m5daa83f77b" y="267.535377"/>
     <use style="fill:#8c564b;stroke:#8c564b;" x="214.35851" xlink:href="#m5daa83f77b" y="269.948577"/>
     <use style="fill:#8c564b;stroke:#8c564b;" x="213.755471" xlink:href="#m5daa83f77b" y="272.463772"/>
     <use style="fill:#8c564b;stroke:#8c564b;" x="213.340945" xlink:href="#m5daa83f77b" y="275.057254"/>
     <use style="fill:#8c564b;stroke:#8c564b;" x="213.129742" xlink:href="#m5daa83f77b" y="277.700087"/>
     <use style="fill:#8c564b;stroke:#8c564b;" x="213.129742" xlink:href="#m5daa83f77b" y="71.355913"/>
     <use style="fill:#8c564b;stroke:#8c564b;" x="213.340945" xlink:href="#m5daa83f77b" y="73.998746"/>
     <use style="fill:#8c564b;stroke:#8c564b;" x="213.755471" xlink:href="#m5daa83f77b" y="76.592228"/>
     <use style="fill:#8c564b;stroke:#8c564b;" x="214.35851" xlink:href="#m5daa83f77b" y="79.107423"/>
     <use style="fill:#8c564b;stroke:#8c564b;" x="215.129987" xlink:href="#m5daa83f77b" y="81.520623"/>
     <use style="fill:#8c564b;stroke:#8c564b;" x="216.046583" xlink:href="#m5daa83f77b" y="83.814219"/>
     <use style="fill:#8c564b;stroke:#8c564b;" x="217.083719" xlink:href="#m5daa83f77b" y="85.976792"/>
     <use style="fill:#8c564b;stroke:#8c564b;" x="218.217238" xlink:href="#m5daa83f77b" y="88.002576"/>
     <use style="fill:#8c564b;stroke:#8c564b;" x="219.424625" xlink:href="#m5daa83f77b" y="89.890546"/>
     <use style="fill:#8c564b;stroke:#8c564b;" x="220.685759" xlink:href="#m5daa83f77b" y="91.643353"/>
     <use style="fill:#8c564b;stroke:#8c564b;" x="221.983259" xlink:href="#m5daa83f77b" y="93.266282"/>
     <use style="fill:#8c564b;stroke:#8c564b;" x="223.302523" xlink:href="#m5daa83f77b" y="94.766348"/>
     <use style="fill:#8c564b;stroke:#8c564b;" x="224.631576" xlink:href="#m5daa83f77b" y="96.151546"/>
    </g>
   </g>
   <g id="line2d_25">
    <path clip-path="url(#p4d73c840e6)" d="M 103.104 74.736 
L 106.545103 74.736 
L 109.986207 74.736 
L 113.42731 74.736 
L 116.868414 74.736 
L 120.309517 74.736 
L 123.750621 74.736 
L 127.191724 74.736 
L 130.632828 74.736 
L 134.073931 74.736 
L 137.515034 74.736 
L 140.956138 74.736 
L 144.397241 74.736 
L 147.838345 74.736 
L 151.279448 74.736 
L 154.720552 74.736 
L 158.161655 74.736 
L 161.602759 74.736 
L 165.043862 74.736 
L 168.484966 74.736 
L 171.926069 74.736 
L 175.367172 74.736 
L 178.808276 74.736 
L 182.249379 74.736 
L 185.690483 74.736 
L 189.131586 74.736 
L 192.57269 74.736 
L 196.013793 74.736 
L 199.454897 74.736 
L 202.896 74.736 
L 202.896 74.736 
L 202.896 78.0624 
L 202.896 81.3888 
L 202.896 84.7152 
L 202.896 88.0416 
L 202.896 91.368 
L 202.896 94.6944 
L 202.896 98.0208 
L 202.896 101.3472 
L 202.896 104.6736 
L 202.896 108 
L 202.896 111.3264 
L 202.896 114.6528 
L 202.896 117.9792 
L 202.896 121.3056 
L 202.896 124.632 
L 202.896 127.9584 
L 202.896 131.2848 
L 202.896 134.6112 
L 202.896 137.9376 
L 202.896 141.264 
L 202.896 141.264 
L 199.454897 141.264 
L 196.013793 141.264 
L 192.57269 141.264 
L 189.131586 141.264 
L 185.690483 141.264 
L 182.249379 141.264 
L 178.808276 141.264 
L 175.367172 141.264 
L 171.926069 141.264 
L 168.484966 141.264 
L 165.043862 141.264 
L 161.602759 141.264 
L 158.161655 141.264 
L 154.720552 141.264 
L 151.279448 141.264 
L 147.838345 141.264 
L 144.397241 141.264 
L 140.956138 141.264 
L 137.515034 141.264 
L 134.073931 141.264 
L 130.632828 141.264 
L 127.191724 141.264 
L 123.750621 141.264 
L 120.309517 141.264 
L 116.868414 141.264 
L 113.42731 141.264 
L 109.986207 141.264 
L 106.545103 141.264 
L 103.104 141.264 
L 103.104 141.264 
L 103.104 137.9376 
L 103.104 134.6112 
L 103.104 131.2848 
L 103.104 127.9584 
L 103.104 124.632 
L 103.104 121.3056 
L 103.104 117.9792 
L 103.104 114.6528 
L 103.104 111.3264 
L 103.104 108 
L 103.104 104.6736 
L 103.104 101.3472 
L 103.104 98.0208 
L 103.104 94.6944 
L 103.104 91.368 
L 103.104 88.0416 
L 103.104 84.7152 
L 103.104 81.3888 
L 103.104 78.0624 
L 103.104 74.736 
" style="fill:none;stroke:#e377c2;stroke-linecap:square;stroke-width:1.5;"/>
   </g>
   <g id="line2d_26">
    <path clip-path="url(#p4d73c840e6)" d="M 289.696343 91.431483 
L 289.143809 91.851343 
L 288.587514 92.285435 
L 288.027716 92.73434 
L 287.464709 93.198657 
L 286.898831 93.679004 
L 286.330461 94.176013 
L 285.76003 94.690333 
L 285.188021 95.222626 
L 284.614975 95.773563 
L 284.041495 96.343822 
L 283.468252 96.934084 
L 282.89599 97.54503 
L 282.325528 98.177331 
L 281.757768 98.831645 
L 281.193697 99.508609 
L 280.634394 100.208828 
L 280.08103 100.93287 
L 279.53487 101.681248 
L 278.99728 102.454414 
L 278.469721 103.252744 
L 277.953751 104.07652 
L 277.451019 104.92592 
L 276.963262 105.800998 
L 276.492294 106.701671 
L 276.039996 107.627699 
L 275.608303 108.578673 
L 275.199184 109.553998 
L 274.814623 110.552881 
L 274.456595 111.574321 
L 274.456595 111.574321 
L 273.445168 111.231405 
L 272.405899 110.866683 
L 271.337511 110.478102 
L 270.238674 110.063361 
L 269.108016 109.619867 
L 267.944133 109.144699 
L 266.745601 108.634555 
L 265.511003 108.085694 
L 264.238959 107.49387 
L 262.928171 106.854257 
L 261.577486 106.161357 
L 260.185976 105.408906 
L 258.753061 104.589762 
L 257.278657 103.695783 
L 255.76339 102.717712 
L 254.208868 101.645052 
L 252.618049 100.465972 
L 250.995711 99.167257 
L 249.349052 97.734351 
L 247.688424 96.151546 
L 247.688424 96.151546 
L 249.406135 94.516929 
L 251.108476 93.042135 
L 252.784177 91.709836 
L 254.425526 90.504042 
L 256.027503 89.410309 
L 257.587092 88.415772 
L 259.102743 87.509081 
L 260.57396 86.680273 
L 262.000995 85.920634 
L 263.384619 85.222554 
L 264.725951 84.579387 
L 266.026335 83.985328 
L 267.287249 83.435299 
L 268.510246 82.924849 
L 269.696898 82.450071 
L 270.848775 82.007527 
L 271.967414 81.594183 
L 273.054308 81.207358 
L 274.110895 80.844674 
L 275.138552 80.504019 
L 276.138596 80.18351 
L 277.112277 79.881465 
L 278.060782 79.59638 
L 278.985235 79.326904 
L 279.8867 79.071822 
L 280.766185 78.830037 
L 281.62464 78.600561 
L 282.462963 78.382497 
L 283.282004 78.175032 
L 283.282004 78.175032 
L 283.4862 78.952996 
L 283.707003 79.721081 
L 283.943728 80.478672 
L 284.195662 81.225213 
L 284.462074 81.96021 
L 284.742217 82.683226 
L 285.035339 83.393887 
L 285.340682 84.091875 
L 285.657491 84.776927 
L 285.985019 85.448836 
L 286.322527 86.107443 
L 286.669292 86.752639 
L 287.024606 87.384357 
L 287.387781 88.002576 
L 287.758152 88.60731 
L 288.135077 89.198607 
L 288.517937 89.776551 
L 288.90614 90.34125 
L 289.299122 90.892842 
L 289.696343 91.431483 
" style="fill:none;stroke:#7f7f7f;stroke-linecap:square;stroke-width:1.5;"/>
   </g>
   <g id="patch_3">
    <path d="M 236.16 307.584 
L 236.16 41.472 
" style="fill:none;stroke:#000000;stroke-linecap:square;stroke-linejoin:miter;stroke-width:0.8;"/>
   </g>
   <g id="patch_4">
    <path d="M 375.8688 307.584 
L 375.8688 41.472 
" style="fill:none;"/>
   </g>
   <g id="patch_5">
    <path d="M 96.4512 174.528 
L 375.8688 174.528 
" style="fill:none;stroke:#000000;stroke-linecap:square;stroke-linejoin:miter;stroke-width:0.8;"/>
   </g>
   <g id="patch_6">
    <path d="M 96.4512 41.472 
L 375.8688 41.472 
" style="fill:none;"/>
   </g>
   <g id="legend_1">
    <g id="patch_7">
     <path d="M 103.4512 302.584 
L 149.991825 302.584 
Q 151.991825 302.584 151.991825 300.584 
L 151.991825 184.159 
Q 151.991825 182.159 149.991825 182.159 
L 103.4512 182.159 
Q 101.4512 182.159 101.4512 184.159 
L 101.4512 300.584 
Q 101.4512 302.584 103.4512 302.584 
z
" style="fill:#ffffff;opacity:0.8;stroke:#cccccc;stroke-linejoin:miter;"/>
    </g>
    <g id="line2d_27">
     <path d="M 105.4512 190.257437 
L 125.4512 190.257437 
" style="fill:none;stroke:#1f77b4;stroke-linecap:square;stroke-width:1.5;"/>
    </g>
    <g id="line2d_28"/>
    <g id="text_19">
     <!-- z1 -->
     <defs>
      <path d="M 5.515625 54.6875 
L 48.1875 54.6875 
L 48.1875 46.484375 
L 14.40625 7.171875 
L 48.1875 7.171875 
L 48.1875 0 
L 4.296875 0 
L 4.296875 8.203125 
L 38.09375 47.515625 
L 5.515625 47.515625 
z
" id="DejaVuSans-122"/>
     </defs>
     <g transform="translate(133.4512 193.757437)scale(0.1 -0.1)">
      <use xlink:href="#DejaVuSans-122"/>
      <use x="52.490234" xlink:href="#DejaVuSans-49"/>
     </g>
    </g>
    <g id="line2d_29">
     <path d="M 105.4512 204.935563 
L 125.4512 204.935563 
" style="fill:none;stroke:#ff7f0e;stroke-linecap:square;stroke-width:1.5;"/>
    </g>
    <g id="line2d_30"/>
    <g id="text_20">
     <!-- w1 -->
     <defs>
      <path d="M 4.203125 54.6875 
L 13.1875 54.6875 
L 24.421875 12.015625 
L 35.59375 54.6875 
L 46.1875 54.6875 
L 57.421875 12.015625 
L 68.609375 54.6875 
L 77.59375 54.6875 
L 63.28125 0 
L 52.6875 0 
L 40.921875 44.828125 
L 29.109375 0 
L 18.5 0 
z
" id="DejaVuSans-119"/>
     </defs>
     <g transform="translate(133.4512 208.435563)scale(0.1 -0.1)">
      <use xlink:href="#DejaVuSans-119"/>
      <use x="81.787109" xlink:href="#DejaVuSans-49"/>
     </g>
    </g>
    <g id="line2d_31">
     <path d="M 105.4512 219.613687 
L 125.4512 219.613687 
" style="fill:none;stroke:#2ca02c;stroke-linecap:square;stroke-width:1.5;"/>
    </g>
    <g id="line2d_32"/>
    <g id="text_21">
     <!-- z2 -->
     <g transform="translate(133.4512 223.113687)scale(0.1 -0.1)">
      <use xlink:href="#DejaVuSans-122"/>
      <use x="52.490234" xlink:href="#DejaVuSans-50"/>
     </g>
    </g>
    <g id="line2d_33">
     <path d="M 105.4512 234.291812 
L 125.4512 234.291812 
" style="fill:none;stroke:#d62728;stroke-linecap:square;stroke-width:1.5;"/>
    </g>
    <g id="line2d_34"/>
    <g id="text_22">
     <!-- w2 -->
     <g transform="translate(133.4512 237.791812)scale(0.1 -0.1)">
      <use xlink:href="#DejaVuSans-119"/>
      <use x="81.787109" xlink:href="#DejaVuSans-50"/>
     </g>
    </g>
    <g id="line2d_35">
     <path d="M 105.4512 248.969937 
L 125.4512 248.969937 
" style="fill:none;stroke:#9467bd;stroke-linecap:square;stroke-width:1.5;"/>
    </g>
    <g id="line2d_36"/>
    <g id="text_23">
     <!-- z3 -->
     <g transform="translate(133.4512 252.469937)scale(0.1 -0.1)">
      <use xlink:href="#DejaVuSans-122"/>
      <use x="52.490234" xlink:href="#DejaVuSans-51"/>
     </g>
    </g>
    <g id="line2d_37"/>
    <g id="line2d_38">
     <g>
      <use style="fill:#8c564b;stroke:#8c564b;" x="115.4512" xlink:href="#m5daa83f77b" y="263.648062"/>
     </g>
    </g>
    <g id="text_24">
     <!-- w3 -->
     <g transform="translate(133.4512 267.148062)scale(0.1 -0.1)">
      <use xlink:href="#DejaVuSans-119"/>
      <use x="81.787109" xlink:href="#DejaVuSans-51"/>
     </g>
    </g>
    <g id="line2d_39">
     <path d="M 105.4512 278.326187 
L 125.4512 278.326187 
" style="fill:none;stroke:#e377c2;stroke-linecap:square;stroke-width:1.5;"/>
    </g>
    <g id="line2d_40"/>
    <g id="text_25">
     <!-- z4 -->
     <g transform="translate(133.4512 281.826187)scale(0.1 -0.1)">
      <use xlink:href="#DejaVuSans-122"/>
      <use x="52.490234" xlink:href="#DejaVuSans-52"/>
     </g>
    </g>
    <g id="line2d_41">
     <path d="M 105.4512 293.004312 
L 125.4512 293.004312 
" style="fill:none;stroke:#7f7f7f;stroke-linecap:square;stroke-width:1.5;"/>
    </g>
    <g id="line2d_42"/>
    <g id="text_26">
     <!-- w4 -->
     <g transform="translate(133.4512 296.504312)scale(0.1 -0.1)">
      <use xlink:href="#DejaVuSans-119"/>
      <use x="81.787109" xlink:href="#DejaVuSans-52"/>
     </g>
    </g>
   </g>
  </g>
 </g>
 <defs>
  <clipPath id="p4d73c840e6">
   <rect height="266.112" width="279.4176" x="96.4512" y="41.472"/>
  </clipPath>
 </defs>
</svg>
